<?xml version="1.0" standalone="no"?>
<!DOCTYPE svg PUBLIC "-//W3C//DTD SVG 20010904//EN"
 "http://www.w3.org/TR/2001/REC-SVG-20010904/DTD/svg10.dtd">
<svg version="1.0" xmlns="http://www.w3.org/2000/svg"
 width="250.000000pt" height="250.000000pt" viewBox="0 0 250.000000 250.000000"
 preserveAspectRatio="xMidYMid meet">
<metadata>
Created by potrace 1.14, written by Peter Selinger 2001-2017
</metadata>
<g transform="translate(0.000000,250.000000) scale(0.100000,-0.100000)"
fill="#000000" stroke="none">
<path d="M1415 2262 c3 -3 16 -7 28 -9 156 -22 256 -63 324 -135 37 -38 63
-104 63 -158 0 -57 -37 -157 -87 -234 -33 -51 -174 -199 -515 -540 -258 -258
-480 -488 -493 -510 -37 -63 -56 -124 -62 -197 -6 -76 7 -125 43 -169 49 -57
47 -57 466 -56 l384 1 37 25 c20 14 37 28 37 31 0 3 8 14 18 25 54 60 226 291
304 409 111 169 235 409 287 558 93 265 91 506 -5 650 -81 123 -216 211 -394
257 -25 7 -46 12 -47 12 -2 -1 -17 3 -34 8 -17 5 -57 12 -88 16 -31 3 -60 9
-65 12 -13 7 -209 11 -201 4z m-194 -1740 c46 -38 17 -122 -41 -122 -41 0 -73
31 -73 70 0 38 31 70 68 70 13 0 33 -8 46 -18z"/>
<path d="M800 2179 c-46 -19 -92 -62 -111 -103 -16 -36 -19 -68 -19 -254 l0
-214 -118 -116 c-200 -199 -323 -385 -359 -546 -4 -17 -7 -74 -7 -126 0 -74 5
-108 22 -154 59 -155 203 -294 403 -390 42 -20 79 -36 83 -36 4 0 -17 19 -46
43 -140 114 -145 280 -14 452 17 22 237 247 489 499 252 252 471 478 488 502
50 73 72 150 73 254 1 70 -27 125 -83 165 l-43 30 -366 2 c-228 1 -376 -2
-392 -8z m515 -119 l0 -25 -120 -2 c-66 -2 -130 -1 -142 2 -25 6 -32 40 -10
48 6 3 71 4 142 3 l130 -1 0 -25z"/>
</g>
</svg>
