<?xml version="1.0" encoding="utf-8"?>
<!-- Generator: Adobe Illustrator 27.5.0, SVG Export Plug-In . SVG Version: 6.00 Build 0)  -->
<svg version="1.1" id="Livello_1" xmlns="http://www.w3.org/2000/svg" xmlns:xlink="http://www.w3.org/1999/xlink" x="0px" y="0px"
	 viewBox="0 0 1000 250" style="enable-background:new 0 0 1000 250;" xml:space="preserve">
<style type="text/css">
	.st0{fill:url(#SVGID_1_);}
	.st1{fill:url(#SVGID_00000043431243510052945060000008689259670142496674_);}
	.st2{fill:url(#SVGID_00000093878369201433453080000017100938393419714989_);}
	.st3{fill:url(#SVGID_00000031170186539556411170000012175703366177709459_);}
	.st4{fill:url(#SVGID_00000182516275285526004160000000826725221889400209_);}
	.st5{fill:#7D4DE8;}
	.st6{fill:#FF9C16;}
</style>
<g>
	<g>
		<g>
			
				<linearGradient id="SVGID_1_" gradientUnits="userSpaceOnUse" x1="76.887" y1="146.5417" x2="61.0162" y2="65.2033" gradientTransform="matrix(1 0 0 -1 0 250)">
				<stop  offset="0" style="stop-color:#7D4DE8"/>
				<stop  offset="1" style="stop-color:#483DAE"/>
			</linearGradient>
			<path class="st0" d="M85.9,226.7c-2.4-0.8-116.3-39.5-4.6-136.8v27.9c0,16.3-4.5,32.3-13.3,45.9c-18.7,28.7-5.6,46.7,5.9,55.7
				c0,0,0,0,0.1,0c2.6,2.4,6.3,4.9,11.6,7C85.7,226.6,85.9,226.6,85.9,226.7z"/>
			<g>
				
					<linearGradient id="SVGID_00000116945381850700196750000005863415934228321446_" gradientUnits="userSpaceOnUse" x1="159.6413" y1="242.6421" x2="55.4876" y2="64.8371" gradientTransform="matrix(1 0 0 -1 0 250)">
					<stop  offset="0" style="stop-color:#FF851D"/>
					<stop  offset="1" style="stop-color:#FFAF0D"/>
				</linearGradient>
				<path style="fill:url(#SVGID_00000116945381850700196750000005863415934228321446_);" d="M169.2,83.7c8.7-8.7,13.7-20.6,13.7-33
					c0-5.4-2.2-10.2-5.7-13.8c-3.5-3.5-8.4-5.7-13.8-5.7h-62.7C90,31.3,81.3,40,81.3,50.7v67.1c0,16.3-4.5,32.3-13.3,45.9
					c-28.5,43.9,16.9,62.6,18,63c-38.2-21.3-4.7-55.1-4.7-55.1L169.2,83.7z M119.9,41.1h23.9c0.8,0,1.5,0.3,2.1,0.9
					c0.5,0.5,0.9,1.3,0.9,2.1c0,1.6-1.3,2.9-2.9,2.9H120c-0.8,0-1.5-0.3-2.1-0.9c-0.5-0.5-0.9-1.3-0.9-2.1
					C117,42.4,118.3,41.1,119.9,41.1z"/>
			</g>
		</g>
		<g>
			
				<linearGradient id="SVGID_00000098215966383477056060000002742525696566872236_" gradientUnits="userSpaceOnUse" x1="228.7573" y1="201.6019" x2="147.419" y2="76.6185" gradientTransform="matrix(1 0 0 -1 0 250)">
				<stop  offset="0" style="stop-color:#FF851D"/>
				<stop  offset="1" style="stop-color:#FFAF0D"/>
			</linearGradient>
			<path style="fill:url(#SVGID_00000098215966383477056060000002742525696566872236_);" d="M195.4,101.6
				c11.5-19.2,23.2-45.7,11.1-60.3c-7.6-9.2-17.6-13.8-26.8-16.1c138.4,17.9,20.8,167.2,0,191.2c2-3,3.1-6.7,3.1-10.5v-59.2
				C182.9,130.8,187.2,115.3,195.4,101.6z"/>
			
				<linearGradient id="SVGID_00000070824760423375146730000016969612313697201323_" gradientUnits="userSpaceOnUse" x1="81.2" y1="125.9966" x2="211.6067" y2="125.9966" gradientTransform="matrix(1 0 0 -1 0 250)">
				<stop  offset="0" style="stop-color:#7D4DE8"/>
				<stop  offset="1" style="stop-color:#483DAE"/>
			</linearGradient>
			<path style="fill:url(#SVGID_00000070824760423375146730000016969612313697201323_);" d="M206.5,41.4
				c-18.7-22.6-51.8-17.5-51.8-17.5c74.9,9.2,28.2,61.7,28.2,61.7L163.5,105l-68.9,68.9c-0.6,0.6-1.2,1.2-1.7,1.8
				c-7.5,8.3-11.7,19.2-11.7,30.4c0,8.4,5.3,15.5,12.7,18.2l0,0c1.1,0.4,74.9,0.4,76.1,0l0,0c7.4-2.7,12.7-9.9,12.7-18.2v-59.2
				c0-15.9,4.4-31.5,12.5-45.1C206.9,82.4,218.6,55.9,206.5,41.4z M131.7,210.3c-4,0-7.3-3.3-7.3-7.3s3.3-7.3,7.3-7.3
				s7.3,3.3,7.3,7.3C139,207.1,135.7,210.3,131.7,210.3z"/>
			<g>
				
					<linearGradient id="SVGID_00000107567571160100723900000013890250530874027199_" gradientUnits="userSpaceOnUse" x1="167.8035" y1="227.4244" x2="166.5445" y2="222.82" gradientTransform="matrix(1 0 0 -1 0 250)">
					<stop  offset="0" style="stop-color:#7D4DE8"/>
					<stop  offset="1" style="stop-color:#483DAE"/>
				</linearGradient>
				<path style="fill:url(#SVGID_00000107567571160100723900000013890250530874027199_);" d="M179.7,25.3
					c-7.1-0.8-14.9-1.3-23.4-1.4c-0.1,0-0.2,0-0.3,0c-0.4,0-0.8,0-1.2,0C155.3,23.7,166.7,22.1,179.7,25.3z"/>
			</g>
		</g>
	</g>
	<g>
		<g>
			<path class="st5" d="M352.2,116.1c0,14.5-10.8,23.5-28.2,23.5h-13.1v17.9h-15v-65H324C341.3,92.5,352.2,101.5,352.2,116.1z
				 M337,116.1c0-7.1-4.6-11.3-13.8-11.3H311v22.5h12.2C332.4,127.3,337,123.1,337,116.1z"/>
			<path class="st5" d="M422.4,92.5v64.9h-15v-26.6h-29.5v26.6h-15V92.5h15v25.6h29.5V92.5H422.4z"/>
			<path class="st5" d="M433.7,125c0-19.3,15-33.6,35.5-33.6c20.4,0,35.5,14.2,35.5,33.6s-15.1,33.6-35.5,33.6
				C448.7,158.6,433.7,144.3,433.7,125z M489.6,125c0-12.3-8.7-20.8-20.3-20.8c-11.6,0-20.3,8.4-20.3,20.8s8.7,20.8,20.3,20.8
				C480.8,145.8,489.6,137.3,489.6,125z"/>
			<path class="st5" d="M575.6,92.5v64.9h-12.3L530.9,118v39.4h-14.8V92.5h12.4l32.3,39.4V92.5H575.6z"/>
			<path class="st5" d="M641.3,145.4v12.1H591v-65h49.1v12.1H606v14.1h30.1v11.7H606v15H641.3z"/>
			<path class="st6" d="M653.3,92.5h29.5c21.2,0,35.8,12.8,35.8,32.5s-14.6,32.5-35.8,32.5h-29.5V92.5z M682,145.1
				c12.9,0,21.3-7.7,21.3-20.1s-8.4-20.1-21.3-20.1h-13.7v40.2H682z"/>
			<path class="st6" d="M780.1,145.4v12.1h-50.3v-65h49.1v12.1h-34.1v14.1h30.1v11.7h-30.1v15H780.1z"/>
			<path class="st6" d="M834.8,143.5h-30.1l-5.7,13.9h-15.4l28.9-64.9h14.8l29,64.9h-15.8L834.8,143.5z M830.1,132.1l-10.3-24.9
				l-10.3,24.9H830.1z"/>
			<path class="st6" d="M863.1,92.5h15v52.7h32.5v12.2H863L863.1,92.5L863.1,92.5z"/>
			<path class="st6" d="M913.7,151.1l5.1-11.3c5.5,4,13.6,6.8,21.4,6.8c8.9,0,12.5-3,12.5-7c0-12.1-37.7-3.8-37.7-27.9
				c0-11,8.9-20.2,27.4-20.2c8.2,0,16.5,1.9,22.5,5.7l-4.6,11.4c-6-3.4-12.2-5.1-18-5.1c-8.9,0-12.3,3.3-12.3,7.4
				c0,12,37.7,3.7,37.7,27.5c0,10.8-9,20.1-27.5,20.1C929.8,158.6,919.4,155.5,913.7,151.1z"/>
		</g>
	</g>
</g>
</svg>
